<?xml version="1.0" encoding="UTF-8" standalone="no"?>
<svg
   xmlns:dc="http://purl.org/dc/elements/1.1/"
   xmlns:cc="http://creativecommons.org/ns#"
   xmlns:rdf="http://www.w3.org/1999/02/22-rdf-syntax-ns#"
   xmlns:svg="http://www.w3.org/2000/svg"
   xmlns="http://www.w3.org/2000/svg"
   xmlns:sodipodi="http://sodipodi.sourceforge.net/DTD/sodipodi-0.dtd"
   xmlns:inkscape="http://www.inkscape.org/namespaces/inkscape"
   height="1344.0024"
   style="clip-rule:evenodd;fill-rule:evenodd;image-rendering:optimizeQuality;shape-rendering:geometricPrecision;text-rendering:geometricPrecision"
   version="1.1"
   viewBox="0 0 1344.002 1344.0024"
   width="1344.002"
   xml:space="preserve"
   id="svg13"
   sodipodi:docname="development.svg"
   inkscape:version="0.92.2 (5c3e80d, 2017-08-06)"><metadata
     id="metadata17"><rdf:RDF><cc:Work
         rdf:about=""><dc:format>image/svg+xml</dc:format><dc:type
           rdf:resource="http://purl.org/dc/dcmitype/StillImage" /><dc:title></dc:title></cc:Work></rdf:RDF></metadata><sodipodi:namedview
     pagecolor="#ffffff"
     bordercolor="#666666"
     borderopacity="1"
     objecttolerance="10"
     gridtolerance="10"
     guidetolerance="10"
     inkscape:pageopacity="0"
     inkscape:pageshadow="2"
     inkscape:window-width="3000"
     inkscape:window-height="1875"
     id="namedview15"
     showgrid="false"
     fit-margin-top="0"
     fit-margin-left="0"
     fit-margin-right="0"
     fit-margin-bottom="0"
     inkscape:zoom="0.4609375"
     inkscape:cx="672.00098"
     inkscape:cy="199.70105"
     inkscape:window-x="-13"
     inkscape:window-y="-13"
     inkscape:window-maximized="1"
     inkscape:current-layer="svg13" /><defs
     id="defs4"><style
       type="text/css"
       id="style2"><![CDATA[
    .fil2 {fill:none}
    .fil0 {fill:#424242}
    .fil1 {fill:#FFFFFE}
   ]]></style></defs><g
     id="Layer_x0020_1"
     transform="translate(-351.99902,-351.99902)"><circle
       class="fil0"
       cx="1024"
       cy="1024"
       r="672.00098"
       id="circle6"
       style="fill:#424242" /><path
       class="fil1"
       d="m 689.98,1383.41 z m 561.578,273.047 c -71.0705,25.5756 -147.679,39.5445 -227.558,39.5445 -51.5552,0 -101.747,-5.824 -149.972,-16.8177 -0.008,-12.3 -0.11929,-23.974 -0.26575,-39.4548 -0.17126,-18.0118 -0.38504,-40.3926 -0.5622,-66.0508 -192.885,35.0173 -237.916,-100.448 -239.764,-106.277 -30.6921,-77.5796 -72.9001,-97.3583 -73.0229,-97.4174 l -1.58386,-0.8858 c -97.2166,-66.4382 11.3504,-65.0611 11.6575,-65.0599 h 0.74645 c 76.0359,5.3516 116.532,75.4583 118.739,79.376 23.1213,39.5953 51.5587,59.1237 79.8142,67.1906 40.9855,11.7 82.317,-0.1359 106.73,-10.2284 3.3874,-20.0173 8.96575,-37.3264 15.9272,-51.9886 4.69134,-9.8776 10.0264,-18.5894 15.7642,-26.1532 -73.6583,-10.4516 -147.475,-31.7918 -205.139,-80.3339 -63.9804,-53.8607 -107.345,-140.378 -107.345,-281.074 h 0.0461 c 0.006,-39.34373 6.81615,-75.18553 19.2437,-107.57103 12.3165,-32.1 30.1677,-60.8587 52.3949,-86.3198 -4.25197,-12.0839 -10.1575,-33.1453 -12.0225,-61.0264 -2.27953,-34.0996 1.43976,-78.5906 21.6154,-129.601 l 0.46535,-0.93071 c 0.013,-0.0248 8.77205,-7.48465 21.1524,-8.11064 8.16733,-0.41338 20.4945,0.0154 37.1315,3.37914 32.3988,6.5504 82.0288,24.5173 150.543,70.2591 27.0697,-7.27678 55.0087,-12.8067 83.3481,-16.6193 30.66261,-4.12323 61.88511,-6.23859 93.06621,-6.37678 h 0.093 c 31.1457,0.13819 62.3327,2.25473 92.9764,6.3756 28.3524,3.81378 56.3174,9.34843 83.4367,16.6252 137.728,-91.9749 201.197,-71.6894 201.385,-71.6351 l 5.5488,1.64528 2.1366,5.38819 c 20.2536,51.078 24.0095,95.5265 21.75,129.554 -1.852,27.8752 -7.735,48.9272 -11.9693,61.0217 22.2142,25.3973 40.0099,54.1205 52.2993,86.2075 12.4536,32.5158 19.2449,68.419 19.2449,107.73605 0,141.086 -43.428,227.563 -107.535,281.231 -57.7063,48.3118 -131.612,69.3745 -205.427,79.6477 8.6315,11.289 16.3902,25.1788 22.4492,41.7177 8.1532,22.2626 13.265,49.3819 13.265,81.4394 0,57.1997 -0.4228,116.713 -0.7016,156.118 -0.04,5.5653 -0.076,10.5874 -0.1039,15.476 z M 656.204,1408.306 c 5.07993,0.5209 8.81575,4.6547 8.34686,9.2327 -0.47008,4.5768 -4.96772,7.8661 -10.0465,7.3453 -5.07993,-0.5209 -8.81575,-4.6548 -8.34686,-9.2315 0.47008,-4.578 4.96772,-7.8674 10.0465,-7.3465 z m 19.1528,49.3441 c 0.4689,-4.578 4.96654,-7.8673 10.0465,-7.3465 5.07874,0.5209 8.81575,4.6548 8.34568,9.2327 -0.4689,4.578 -4.96654,7.8674 -10.0465,7.3465 -5.07874,-0.5209 -8.81457,-4.6547 -8.34568,-9.2327 z m -66.3603,-113.609 c 5.07993,0.5209 8.81575,4.6547 8.34686,9.2315 -0.47008,4.578 -4.96772,7.8673 -10.0465,7.3465 -5.07993,-0.5209 -8.81575,-4.6548 -8.34686,-9.2315 0.47008,-4.578 4.96772,-7.8674 10.0465,-7.3465 z m 24.5492,27.3862 c 5.07993,0.5209 8.81575,4.6547 8.34686,9.2327 -0.47008,4.5768 -4.96772,7.8673 -10.0465,7.3464 -5.07874,-0.5208 -8.81575,-4.6547 -8.34568,-9.2326 0.4689,-4.578 4.96654,-7.8674 10.0453,-7.3465 z m 91.2119,107.849 c 5.07993,0.5209 8.81575,4.6547 8.34686,9.2327 -0.47008,4.5779 -4.96772,7.8673 -10.0465,7.3464 -5.07993,-0.5208 -8.81575,-4.6547 -8.34686,-9.2326 0.47008,-4.5768 4.96772,-7.8674 10.0465,-7.3465 z m 56.6174,15.4264 c 5.07874,0.5209 8.81575,4.6547 8.34686,9.2315 -0.47008,4.578 -4.96772,7.8673 -10.0465,7.3465 -5.07993,-0.5209 -8.81575,-4.6548 -8.34686,-9.2327 0.47008,-4.5768 4.96772,-7.8662 10.0465,-7.3453 z m 52.3241,-4.2543 c 5.07874,0.5208 8.81457,4.6547 8.34568,9.2327 -0.4689,4.5767 -4.96654,7.8661 -10.0465,7.3452 -5.07874,-0.5208 -8.81575,-4.6547 -8.34568,-9.2315 0.4689,-4.5779 4.96654,-7.8673 10.0465,-7.3464 z"
       id="path8"
       inkscape:connector-curvature="0"
       style="fill:#fffffe" /></g><rect
     class="fil2"
     height="2048"
     width="2048"
     id="rect11"
     x="-351.99902"
     y="-351.99902"
     style="fill:none" /></svg>