<?xml version="1.0" encoding="UTF-8" standalone="no"?>
<svg
   xmlns:dc="http://purl.org/dc/elements/1.1/"
   xmlns:cc="http://creativecommons.org/ns#"
   xmlns:rdf="http://www.w3.org/1999/02/22-rdf-syntax-ns#"
   xmlns:svg="http://www.w3.org/2000/svg"
   xmlns="http://www.w3.org/2000/svg"
   xmlns:sodipodi="http://sodipodi.sourceforge.net/DTD/sodipodi-0.dtd"
   xmlns:inkscape="http://www.inkscape.org/namespaces/inkscape"
   viewBox="0 0 62.907948 69.840782"
   version="1.1"
   id="svg22"
   sodipodi:docname="freelance-hugo-developer-service.svg"
   width="62.907948"
   height="69.840782"
   inkscape:version="0.92.2 (5c3e80d, 2017-08-06)">
  <metadata
     id="metadata28">
    <rdf:RDF>
      <cc:Work
         rdf:about="">
        <dc:format>image/svg+xml</dc:format>
        <dc:type
           rdf:resource="http://purl.org/dc/dcmitype/StillImage" />
        <dc:title></dc:title>
      </cc:Work>
    </rdf:RDF>
  </metadata>
  <defs
     id="defs26" />
  <sodipodi:namedview
     pagecolor="#ffffff"
     bordercolor="#666666"
     borderopacity="1"
     objecttolerance="10"
     gridtolerance="10"
     guidetolerance="10"
     inkscape:pageopacity="0"
     inkscape:pageshadow="2"
     inkscape:window-width="3000"
     inkscape:window-height="1875"
     id="namedview24"
     showgrid="false"
     fit-margin-top="0"
     fit-margin-left="0"
     fit-margin-right="0"
     fit-margin-bottom="0"
     inkscape:zoom="6.675088"
     inkscape:cx="127.58614"
     inkscape:cy="34.930549"
     inkscape:window-x="-13"
     inkscape:window-y="-13"
     inkscape:window-maximized="1"
     inkscape:current-layer="svg22" />
  <style
     type="text/css"
     id="style2">
	.st0{fill:#FF4088;}
	.st1{fill:#0594CB;}
	.st2{fill:#33BA91;}
	.st3{fill:#EBB951;}
	.st4{fill:#00A88A;}
	.st5{fill:#FCD804;}
	.st6{fill:#0083C0;}
	.st7{fill:#C9177E;stroke:#C9177E;stroke-width:4;stroke-miterlimit:10;}
</style>
  <path
     class="st0"
     d="m 54.386143,17.100232 c -4.93,-2.9 -13.64,-8.0100001 -18.97,-11.1500001 -2.82,-1.65 -6.32,-1.62 -9.1,0.1 -4.72,2.91 -12.08,7.4500001 -16.84,10.3800001 -2.87,1.77 -4.61,4.89 -4.61,8.26 v 20.97 c 0,3.34 1.77,6.43 4.66,8.12 l 17.55,10.26 c 2.33,1.36 5.21,1.39 7.57,0.08 5.12,-2.85 14.2,-7.91 19.43,-10.82 2.48,-1.38 4.02,-4 4.02,-6.84 v -2.4 0 -20.49 c 0,-2.66 -1.41,-5.12 -3.71,-6.47 z m -9.6,35.17 h -7.29 v -15.18 h -12.04 v 15.18 h -7.27 v -34.72 h 7.26 v 12.65 h 12.05 v -12.65 h 7.29 z"
     id="path4"
     inkscape:connector-curvature="0"
     style="fill:#ff4088" />
  <path
     class="st7"
     d="m 30.956143,67.830232 c -1.57,0 -3.13,-0.36 -4.55,-1.05 -1.38,-0.67 -2.72,-1.49 -4.02,-2.28 -0.57,-0.35 -1.15,-0.7 -1.72,-1.04 -1.36,-0.79 -2.72,-1.58 -4.08,-2.37 -2.8,-1.62 -5.6,-3.25 -8.38,-4.9 -1.3,-0.77 -2.49,-1.79 -3.44,-2.96 -0.94,-1.16 -1.66,-2.49 -2.12,-3.95 -0.74,-2.33 -0.67,-4.85 -0.6,-7.28 0.02,-0.7 0.04,-1.38 0.04,-2.06 v -4.96 c 0,-3.31 -0.01,-6.62 0,-9.93 0,-0.74 0.03,-1.63 0.19,-2.54 0.28,-1.53 0.82,-2.96 1.61,-4.25 0.81,-1.32 1.83,-2.46 3.05,-3.4 0.93,-0.71 1.95,-1.32 2.94,-1.91 0.38,-0.22 0.75,-0.45 1.12,-0.67 l 13.31,-8.2100001 c 1.6,-0.99 2.95,-1.55 4.38,-1.83 0.52,-0.1 1.04,-0.14 1.53,-0.18 0.23,-0.02 0.47,-0.03 0.7,-0.06 h 0.05 c 1.56,-0.01 3.12,0.3 4.62,0.95 1,0.44 1.95,1.01 2.86,1.57 0.33,0.2 0.65,0.4 0.98,0.59 l 14.78,8.6800001 c 1.62,0.94 3.15,1.83 4.36,3.35 1.08,1.35 1.8,2.95 2.09,4.62 0.15,0.88 0.15,1.76 0.15,2.61 v 16.5 c 0,0.66 0.02,1.33 0.05,2.02 0.07,2.21 0.15,4.49 -0.49,6.61 -0.4,1.31 -1.02,2.49 -1.84,3.52 -0.84,1.05 -1.88,1.94 -3.1,2.64 -2.45,1.41 -4.96,2.8 -7.4,4.14 -1.22,0.67 -2.44,1.35 -3.66,2.03 -0.94,0.52 -1.87,1.05 -2.8,1.59 -1.92,1.1 -3.91,2.23 -5.91,3.26 -1.38,0.71 -2.92,1.1 -4.44,1.15 -0.07,-0.01 -0.17,0 -0.26,0 z m 0.05,-64.8400001 c -0.23,0.02 -0.47,0.04 -0.71,0.06 -0.49,0.04 -0.96,0.07 -1.41,0.16 -1.31,0.26 -2.56,0.78 -4.05,1.7 l -13.31,8.2100001 c -0.38,0.23 -0.76,0.46 -1.14,0.68 -0.96,0.57 -1.96,1.16 -2.84,1.84 -1.1,0.85 -2.07,1.93 -2.8,3.12 -0.72,1.18 -1.22,2.5 -1.48,3.91 -0.15,0.83 -0.18,1.66 -0.18,2.36 -0.01,3.31 -0.01,6.62 0,9.93 v 4.97 c 0,0.68 -0.02,1.38 -0.04,2.09 -0.07,2.35 -0.14,4.77 0.55,6.95 0.43,1.34 1.08,2.56 1.95,3.62 0.87,1.07 1.97,2.02 3.17,2.73 2.78,1.65 5.58,3.27 8.38,4.9 1.36,0.79 2.72,1.58 4.08,2.38 0.58,0.34 1.16,0.69 1.74,1.04 1.27,0.78 2.59,1.58 3.93,2.23 1.35,0.66 2.86,0.99 4.36,0.94 1.37,-0.04 2.76,-0.4 4.01,-1.04 1.98,-1.02 3.96,-2.14 5.87,-3.24 0.94,-0.53 1.87,-1.07 2.81,-1.59 1.22,-0.68 2.44,-1.35 3.67,-2.03 2.43,-1.34 4.94,-2.72 7.38,-4.13 1.11,-0.64 2.06,-1.45 2.82,-2.4 0.74,-0.93 1.3,-2 1.66,-3.19 0.6,-1.96 0.52,-4.16 0.45,-6.29 -0.02,-0.69 -0.05,-1.38 -0.05,-2.05 v -16.5 c 0,-0.84 0,-1.64 -0.13,-2.44 -0.26,-1.51 -0.91,-2.95 -1.89,-4.17 -1.1,-1.37 -2.55,-2.21 -4.09,-3.11 l -0.58,-0.34 -14.21,-8.3500001 c -0.33,-0.2 -0.66,-0.4 -1,-0.6 -0.88,-0.54 -1.8,-1.1 -2.74,-1.51 -1.35,-0.56 -2.75,-0.84 -4.18,-0.84 z"
     id="path20"
     inkscape:connector-curvature="0"
     style="fill:#c9177e;stroke:#c9177e;stroke-width:4;stroke-miterlimit:10" />
</svg>
